<svg width="26.000000" height="30.000000" viewBox="0 0 26 30" fill="none" xmlns="http://www.w3.org/2000/svg" xmlns:xlink="http://www.w3.org/1999/xlink">
	<desc>
			Created with Pixso.
	</desc>
	<defs/>
	<path id="Vector" d="M21.05 28.04C19.42 29.62 17.64 29.37 15.92 28.62C14.11 27.86 12.44 27.83 10.52 28.62C8.12 29.66 6.86 29.36 5.42 28.04C-2.71 19.66 -1.51 6.89 7.72 6.43C9.97 6.54 11.54 7.66 12.86 7.76C14.82 7.36 16.7 6.21 18.8 6.36C21.32 6.56 23.22 7.56 24.47 9.36C19.27 12.48 20.5 19.33 25.27 21.24C24.32 23.74 23.09 26.23 21.04 28.06L21.05 28.04ZM12.69 6.33C12.44 2.61 15.46 -0.45 18.92 -0.75C19.4 3.54 15.02 6.75 12.69 6.33Z" fill="#000000" fill-opacity="1.000000" fill-rule="nonzero"/>
</svg>
