<svg width="32.000000" height="32.000000" viewBox="0 0 32 32" fill="none" xmlns="http://www.w3.org/2000/svg" xmlns:xlink="http://www.w3.org/1999/xlink">
	<desc>
			Created with Pixso.
	</desc>
	<defs>
		<clipPath id="clip107_866">
			<rect id="heart" width="32.000000" height="32.000000" transform="translate(-0.181641 0.000000)" fill="white" fill-opacity="0"/>
		</clipPath>
	</defs>
	<rect id="heart" width="32.000000" height="32.000000" transform="translate(-0.181641 0.000000)" fill="#FFFFFF" fill-opacity="0"/>
	<g clip-path="url(#clip107_866)">
		<path id="Vector" d="M15.81 9C15.81 9 13.81 5 9.76 5C6.46 5 3.85 7.75 3.81 11.05C3.75 17.88 9.23 22.74 15.25 26.82C15.42 26.93 15.61 27 15.81 27C16.01 27 16.21 26.93 16.38 26.82C22.39 22.74 27.88 17.88 27.81 11.05C27.78 7.75 25.17 5 21.87 5C17.81 5 15.81 9 15.81 9Z" stroke="#232321" stroke-opacity="1.000000" stroke-width="1.500000" stroke-linejoin="round"/>
	</g>
</svg>
