<svg width="32.000000" height="32.000000" viewBox="0 0 32 32" fill="none" xmlns="http://www.w3.org/2000/svg" xmlns:xlink="http://www.w3.org/1999/xlink">
	<desc>
			Created with Pixso.
	</desc>
	<defs>
		<clipPath id="clip107_868">
			<rect id="Bin" width="32.000000" height="32.000000" transform="translate(-0.181641 0.000000)" fill="white" fill-opacity="0"/>
		</clipPath>
	</defs>
	<rect id="Bin" width="32.000000" height="32.000000" transform="translate(-0.181641 0.000000)" fill="#FFFFFF" fill-opacity="0"/>
	<g clip-path="url(#clip107_868)">
		<path id="Vector" d="M26.81 9L25.02 26.23C24.96 26.72 24.73 27.16 24.36 27.49C24 27.82 23.53 28 23.04 28L8.59 28C8.1 28 7.63 27.82 7.26 27.49C6.9 27.16 6.66 26.72 6.61 26.23L4.81 9" stroke="#232321" stroke-opacity="1.000000" stroke-width="1.500000" stroke-linejoin="round" stroke-linecap="round"/>
		<path id="Vector" d="M28.81 4C29.37 4 29.81 4.44 29.81 5L29.81 8C29.81 8.55 29.37 9 28.81 9L2.81 9C2.26 9 1.81 8.55 1.81 8L1.81 5C1.81 4.44 2.26 4 2.81 4L28.81 4Z" stroke="#232321" stroke-opacity="1.000000" stroke-width="1.500000" stroke-linejoin="round"/>
		<path id="Vector" d="M19.31 15L12.31 22M19.31 22L12.31 15" stroke="#232321" stroke-opacity="1.000000" stroke-width="1.500000" stroke-linejoin="round"/>
	</g>
</svg>
